<svg width="257" height="143" viewBox="0 0 257 143" fill="none" xmlns="http://www.w3.org/2000/svg">
<g filter="url(#filter0_dd_26_246)">
<mask id="path-1-inside-1_26_246" fill="white">
<path d="M12 8C12 4.68629 14.6863 2 18 2H238.328C241.642 2 244.328 4.68629 244.328 8V114.68C244.328 117.993 241.642 120.68 238.328 120.68H18C14.6863 120.68 12 117.993 12 114.68V8Z"></path>
</mask>
<path d="M12 8C12 4.68629 14.6863 2 18 2H238.328C241.642 2 244.328 4.68629 244.328 8V114.68C244.328 117.993 241.642 120.68 238.328 120.68H18C14.6863 120.68 12 117.993 12 114.68V8Z" fill="white" shape-rendering="crispEdges"></path>
<path d="M18 2V3H238.328V2V1H18V2ZM244.328 8H243.328V114.68H244.328H245.328V8H244.328ZM238.328 120.68V119.68H18V120.68V121.68H238.328V120.68ZM12 114.68H13V8H12H11V114.68H12ZM18 120.68V119.68C15.2386 119.68 13 117.441 13 114.68H12H11C11 118.546 14.134 121.68 18 121.68V120.68ZM244.328 114.68H243.328C243.328 117.441 241.09 119.68 238.328 119.68V120.68V121.68C242.194 121.68 245.328 118.546 245.328 114.68H244.328ZM238.328 2V3C241.09 3 243.328 5.23858 243.328 8H244.328H245.328C245.328 4.13401 242.194 1 238.328 1V2ZM18 2V1C14.134 1 11 4.13401 11 8H12H13C13 5.23858 15.2386 3 18 3V2Z" fill="#DAE2CB" mask="url(#path-1-inside-1_26_246)"></path>
<path d="M78.4289 63.2478C78.2849 64.4958 77.8449 65.5598 77.1089 66.4398C76.3729 67.3198 75.3729 67.9918 74.1089 68.4558C72.8449 68.9198 71.3409 69.1518 69.5969 69.1518C68.1409 69.1518 66.8049 68.9838 65.5889 68.6478C64.3889 68.3118 63.3489 67.8078 62.4689 67.1358C61.6049 66.4638 60.9329 65.6318 60.4529 64.6398C59.9729 63.6318 59.7329 62.4558 59.7329 61.1118C59.7329 59.7678 59.9729 58.5918 60.4529 57.5838C60.9329 56.5758 61.6049 55.7358 62.4689 55.0638C63.3489 54.3758 64.3889 53.8638 65.5889 53.5278C66.8049 53.1758 68.1409 52.9998 69.5969 52.9998C71.3409 52.9998 72.8449 53.2398 74.1089 53.7198C75.3889 54.1998 76.3969 54.8878 77.1329 55.7838C77.8689 56.6638 78.3009 57.7358 78.4289 58.9998H75.2609C75.0529 58.3278 74.7009 57.7518 74.2049 57.2718C73.7249 56.7758 73.1009 56.3998 72.3329 56.1438C71.5649 55.8878 70.6529 55.7598 69.5969 55.7598C68.2849 55.7598 67.1329 55.9678 66.1409 56.3838C65.1489 56.7838 64.3809 57.3838 63.8369 58.1838C63.2929 58.9678 63.0209 59.9438 63.0209 61.1118C63.0209 62.2638 63.2929 63.2318 63.8369 64.0158C64.3809 64.7998 65.1489 65.3998 66.1409 65.8158C67.1329 66.2158 68.2849 66.4158 69.5969 66.4158C70.6529 66.4158 71.5569 66.2878 72.3089 66.0318C73.0769 65.7758 73.7009 65.4078 74.1809 64.9278C74.6769 64.4478 75.0369 63.8878 75.2609 63.2478H78.4289ZM83.1939 65.4558V62.7918H93.4659V65.4558H83.1939ZM79.3299 68.8398L86.6259 53.3118H90.0819L97.4499 68.8398H93.9699L87.5859 54.8478H89.1219L82.7859 68.8398H79.3299ZM115.451 65.6718L114.443 66.0798V53.3118H117.635V68.8398H114.443L101.891 56.5758L102.899 56.1678V68.8398H99.7074V53.3118H102.899L115.451 65.6718ZM130.58 69.1518C128.516 69.1518 126.748 68.8318 125.276 68.1918C123.82 67.5358 122.7 66.6078 121.916 65.4078C121.148 64.2078 120.764 62.7678 120.764 61.0878C120.764 59.3918 121.148 57.9438 121.916 56.7438C122.7 55.5438 123.82 54.6238 125.276 53.9838C126.748 53.3278 128.516 52.9998 130.58 52.9998C132.66 52.9998 134.428 53.3278 135.884 53.9838C137.34 54.6238 138.452 55.5438 139.22 56.7438C140.004 57.9438 140.396 59.3918 140.396 61.0878C140.396 62.7678 140.004 64.2078 139.22 65.4078C138.452 66.6078 137.34 67.5358 135.884 68.1918C134.428 68.8318 132.66 69.1518 130.58 69.1518ZM130.58 66.3918C131.86 66.3918 132.98 66.1998 133.94 65.8158C134.916 65.4318 135.676 64.8478 136.22 64.0638C136.78 63.2798 137.06 62.2878 137.06 61.0878C137.06 59.8878 136.78 58.8958 136.22 58.1118C135.676 57.3278 134.916 56.7438 133.94 56.3598C132.98 55.9598 131.86 55.7598 130.58 55.7598C129.316 55.7598 128.188 55.9598 127.196 56.3598C126.204 56.7438 125.428 57.3278 124.868 58.1118C124.308 58.8958 124.028 59.8878 124.028 61.0878C124.028 62.2878 124.308 63.2798 124.868 64.0638C125.428 64.8478 126.204 65.4318 127.196 65.8158C128.188 66.1998 129.316 66.3918 130.58 66.3918ZM146.272 63.7998V61.2558H153.376C154.224 61.2558 154.896 61.0318 155.392 60.5838C155.888 60.1198 156.136 59.4798 156.136 58.6638C156.136 57.8158 155.888 57.1678 155.392 56.7198C154.896 56.2718 154.224 56.0478 153.376 56.0478H146.656V68.8398H143.464V53.3118H153.088C153.952 53.3118 154.76 53.4158 155.512 53.6238C156.28 53.8318 156.944 54.1518 157.504 54.5838C158.08 55.0158 158.528 55.5678 158.848 56.2398C159.168 56.9118 159.328 57.7198 159.328 58.6638C159.328 59.5918 159.168 60.3838 158.848 61.0398C158.528 61.6958 158.08 62.2318 157.504 62.6478C156.944 63.0478 156.28 63.3438 155.512 63.5358C154.76 63.7118 153.952 63.7998 153.088 63.7998H146.272ZM165.524 62.3598V66.1758H177.5V68.8398H162.332V53.3118H177.476V55.9758H165.524V59.8398H175.316V62.3598H165.524ZM183.202 65.4558V62.7918H193.474V65.4558H183.202ZM179.338 68.8398L186.634 53.3118H190.09L197.458 68.8398H193.978L187.594 54.8478H189.13L182.794 68.8398H179.338Z" fill="#043222"></path>
</g>
<defs>
<filter id="filter0_dd_26_246" x="0" y="0" width="256.328" height="142.68" filterUnits="userSpaceOnUse" color-interpolation-filters="sRGB">
<feFlood flood-opacity="0" result="BackgroundImageFix"></feFlood>
<feColorMatrix in="SourceAlpha" type="matrix" values="0 0 0 0 0 0 0 0 0 0 0 0 0 0 0 0 0 0 127 0" result="hardAlpha"></feColorMatrix>
<feMorphology radius="4" operator="erode" in="SourceAlpha" result="effect1_dropShadow_26_246"></feMorphology>
<feOffset dy="4"></feOffset>
<feGaussianBlur stdDeviation="3"></feGaussianBlur>
<feComposite in2="hardAlpha" operator="out"></feComposite>
<feColorMatrix type="matrix" values="0 0 0 0 0 0 0 0 0 0 0 0 0 0 0 0 0 0 0.1 0"></feColorMatrix>
<feBlend mode="normal" in2="BackgroundImageFix" result="effect1_dropShadow_26_246"></feBlend>
<feColorMatrix in="SourceAlpha" type="matrix" values="0 0 0 0 0 0 0 0 0 0 0 0 0 0 0 0 0 0 127 0" result="hardAlpha"></feColorMatrix>
<feMorphology radius="3" operator="erode" in="SourceAlpha" result="effect2_dropShadow_26_246"></feMorphology>
<feOffset dy="10"></feOffset>
<feGaussianBlur stdDeviation="7.5"></feGaussianBlur>
<feComposite in2="hardAlpha" operator="out"></feComposite>
<feColorMatrix type="matrix" values="0 0 0 0 0 0 0 0 0 0 0 0 0 0 0 0 0 0 0.1 0"></feColorMatrix>
<feBlend mode="normal" in2="effect1_dropShadow_26_246" result="effect2_dropShadow_26_246"></feBlend>
<feBlend mode="normal" in="SourceGraphic" in2="effect2_dropShadow_26_246" result="shape"></feBlend>
</filter>
</defs>
</svg>